<svg width="100" height="300" viewBox="0 0 17 58" fill="none" xmlns="http://www.w3.org/2000/svg">
    <line x1="8.5" y1="1" x2="8.5" y2="49" stroke="#1E1E1E"/>
    <path d="M8.5 58L3.73686 48.25H13.2631L8.5 58Z" fill="#1E1E1E"/>
    <line x1="3" y1="43.75" x2="14" y2="43.75" stroke="#1E1E1E" stroke-width="0.5"/>
    <g filter="url(#filter0_d)">
    <line x1="4" y1="41.75" x2="13" y2="41.75" stroke="#1E1E1E" stroke-width="0.5" stroke-dasharray="1 1"/>
    </g>
    <g filter="url(#filter1_d)">
    <circle cx="8.5" cy="35.5" r="2.25" stroke="#1E1E1E" stroke-width="0.5"/>
    </g>
    <line x1="5.16596" y1="0.811323" x2="8.16207" y2="3.4158" stroke="#1E1E1E" stroke-width="0.5"/>
    <line x1="4.16745" y1="5.8166" x2="8.16356" y2="9.42108" stroke="#1E1E1E" stroke-width="0.5"/>
    <line x1="8.83786" y1="3.41599" x2="11.8341" y2="0.811399" stroke="#1E1E1E" stroke-width="0.5"/>
    <line x1="8.83264" y1="9.42112" x2="12.8326" y2="5.81652" stroke="#1E1E1E" stroke-width="0.5"/>
    <line y1="-0.25" x2="5.38163" y2="-0.25" transform="matrix(0.75471 -0.656059 0.565393 0.824822 9 6.53291)" stroke="#1E1E1E" stroke-width="0.5"/>
    <line y1="-0.25" x2="5.38145" y2="-0.25" transform="matrix(0.75471 0.656059 -0.565397 0.824819 4 3.00224)" stroke="#1E1E1E" stroke-width="0.5"/>
    <path d="M8.5 45L10.6651 48.75H6.33494L8.5 45Z" fill="#1E1E1E"/>
    <defs>
    <filter id="filter0_d" x="0" y="41.5" width="17" height="8.5" filterUnits="userSpaceOnUse" color-interpolation-filters="sRGB">
    <feFlood flood-opacity="0" result="BackgroundImageFix"/>
    <feColorMatrix in="SourceAlpha" type="matrix" values="0 0 0 0 0 0 0 0 0 0 0 0 0 0 0 0 0 0 127 0"/>
    <feOffset dy="4"/>
    <feGaussianBlur stdDeviation="2"/>
    <feColorMatrix type="matrix" values="0 0 0 0 0 0 0 0 0 0 0 0 0 0 0 0 0 0 0.25 0"/>
    <feBlend mode="normal" in2="BackgroundImageFix" result="effect1_dropShadow"/>
    <feBlend mode="normal" in="SourceGraphic" in2="effect1_dropShadow" result="shape"/>
    </filter>
    <filter id="filter1_d" x="2" y="33" width="13" height="13" filterUnits="userSpaceOnUse" color-interpolation-filters="sRGB">
    <feFlood flood-opacity="0" result="BackgroundImageFix"/>
    <feColorMatrix in="SourceAlpha" type="matrix" values="0 0 0 0 0 0 0 0 0 0 0 0 0 0 0 0 0 0 127 0"/>
    <feOffset dy="4"/>
    <feGaussianBlur stdDeviation="2"/>
    <feColorMatrix type="matrix" values="0 0 0 0 0 0 0 0 0 0 0 0 0 0 0 0 0 0 0.25 0"/>
    <feBlend mode="normal" in2="BackgroundImageFix" result="effect1_dropShadow"/>
    <feBlend mode="normal" in="SourceGraphic" in2="effect1_dropShadow" result="shape"/>
    </filter>
    </defs>
</svg>
